<svg width="256" height="256" viewBox="0 0 256 256" fill="none" xmlns="http://www.w3.org/2000/svg">
  <path d="M126.336 93.945C95.2142 93.945 67.3926 120.397 67.3926 155.518C67.3926 189.115 91.3428 215.578 126.336 215.578C160.891 215.578 188.607 190.249 188.607 155.518C188.607 120.721 160.119 93.945 126.336 93.945Z" fill="#5C8A2B"/>
  <path d="M54.2619 96.3725C42.4454 96.3725 33.375 107.239 33.375 120.288C33.375 133.337 42.9159 145.657 55.8755 145.657C68.4824 145.657 76.4526 134.382 76.4526 121.333C76.4526 108.284 66.6738 96.3725 54.2619 96.3725Z" fill="#5C8A2B"/>
  <path d="M92.2785 56.2988C79.8761 56.2988 70.6074 68.1677 70.6074 82.4833C70.6074 96.7989 80.6264 109.345 93.2253 109.345C105.891 109.345 113.277 97.0642 113.277 82.4833C113.277 67.9024 103.909 56.2988 92.2785 56.2988Z" fill="#5C8A2B"/>
  <path d="M159.146 56.2988C146.744 56.2988 137.475 68.1677 137.475 82.4833C137.475 96.7989 147.494 109.345 160.093 109.345C172.759 109.345 180.145 97.0642 180.145 82.4833C180.145 67.9024 170.777 56.2988 159.146 56.2988Z" fill="#5C8A2B"/>
  <path d="M198.666 96.3725C186.849 96.3725 177.779 107.239 177.779 120.288C177.779 133.337 187.32 145.657 200.279 145.657C212.886 145.657 220.856 134.382 220.856 121.333C220.856 108.284 211.078 96.3725 198.666 96.3725Z" fill="#5C8A2B"/>
  <path d="M150.943 99.0776C150.943 99.0776 162.753 96.1735 173.307 103.777C183.862 111.38 185.459 123.458 185.459 123.458C185.459 123.458 172.688 126.535 162.126 118.964C151.565 111.393 150.943 99.0776 150.943 99.0776Z" fill="#6B9D33"/>
  <path d="M176.21 103.919C176.21 103.919 168.319 113.279 161.51 120.868C157.397 125.452 153.305 129.706 151.357 131.148" stroke="#F7F4EA" stroke-width="3.5" stroke-linecap="round"/>
  <path d="M163.142 110.622L169.648 111.952" stroke="#F7F4EA" stroke-width="3" stroke-linecap="round"/>
  <path d="M158.249 117.48L164.869 118.694" stroke="#F7F4EA" stroke-width="3" stroke-linecap="round"/>
  <path d="M153.673 124.387L160.214 125.827" stroke="#F7F4EA" stroke-width="3" stroke-linecap="round"/>
</svg>
